# xmcd
#
# Track frame offsets: 
#        150
#        20475
#        43150
#        67612
#        92970
#        115862
#        139437
#        157657
#        181425
#        204800
#        233587
#        253000
#        280737
#
# Disc length: 4144 seconds
#
# Revision: 1
# Processed by: cddbd v1.5.2PL0 Copyright (c) Steve Scherf et al.
# Submitted via: ExactAudioCopy v0.95a5
#
DISCID=a8102e0d
DTITLE=Lee Ritenour - Rit's House
DYEAR=2003
DGENRE=Jazz
TTITLE0=Module 105
TTITLE1="13"
TTITLE2=Mizrab
TTITLE3=78th and 3rd
TTITLE4=Rit's House
TTITLE5=A Little Dolphin Dreamin'
TTITLE6=Every Little Thing She Does Is Magic
TTITLE7=Condor
TTITLE8=Olinda
TTITLE9=Night Owl
TTITLE10=Party Time
TTITLE11=Just Listen
TTITLE12=Country Blues
EXTD=YEAR: 2003
EXTT0=
EXTT1=
EXTT2=
EXTT3=
EXTT4=
EXTT5=
EXTT6=
EXTT7=
EXTT8=
EXTT9=
EXTT10=
EXTT11=
EXTT12=
PLAYORDER=
